<?xml version="1.0" encoding="utf-8"?>
<!-- Generator: Adobe Illustrator 26.0.3, SVG Export Plug-In . SVG Version: 6.00 Build 0)  -->
<svg version="1.1" id="Слой_1" xmlns="http://www.w3.org/2000/svg" xmlns:xlink="http://www.w3.org/1999/xlink" x="0px" y="0px"
	 viewBox="0 0 400 500" style="enable-background:new 0 0 400 500;" xml:space="preserve">
<style type="text/css">
	.st0{fill:#FFFFFF;}
	.st1{fill:none;stroke:#FFFFFF;stroke-width:3;stroke-miterlimit:10;}
	.st2{fill:none;stroke:#FFFFFF;stroke-width:1.5;stroke-miterlimit:10;}
	.st3{fill:none;stroke:#000000;stroke-width:4.5;stroke-miterlimit:10;}
</style>
<g>
	<g>
		<rect x="79.46" y="158.78" transform="matrix(0.7071 -0.7071 0.7071 0.7071 -139.0203 223.4443)" width="241.5" height="241.5"/>
	</g>
	<g>
		<path class="st0" d="M200.21,109.83l169.71,169.71L200.21,449.24L30.5,279.53L200.21,109.83 M200.21,107.71L28.38,279.53
			l171.83,171.83l171.83-171.83L200.21,107.71L200.21,107.71z"/>
	</g>
</g>
<g>
	<g>
		
			<rect x="119.96" y="196.28" transform="matrix(0.7071 -0.7071 0.7071 0.7071 -136.8988 222.5658)" class="st0" width="160.5" height="160.5"/>
	</g>
	<g>
		<path d="M200.21,164.1l112.43,112.43L200.21,388.96L87.78,276.53L200.21,164.1 M200.21,161.98L85.66,276.53l114.55,114.55
			l114.55-114.55L200.21,161.98L200.21,161.98z"/>
	</g>
</g>
<g>
	<g>
		<rect x="160.46" y="130.28" width="79.5" height="106.5"/>
	</g>
	<g>
		<path class="st0" d="M239.21,131.03v105h-78v-105H239.21 M240.71,129.53h-81v108h81V129.53L240.71,129.53z"/>
	</g>
</g>
<g>
	<g>
		<rect x="179.21" y="130.28" width="42" height="106.5"/>
	</g>
	<g>
		<path class="st0" d="M220.46,131.03v105h-40.5v-105H220.46 M221.96,129.53h-43.5v108h43.5V129.53L221.96,129.53z"/>
	</g>
</g>
<g>
	<g>
		<path d="M181.31,128.78c-11.5,0-20.85-9.35-20.85-20.85v-37.8c0-11.5,9.35-20.85,20.85-20.85h37.8c11.5,0,20.85,9.35,20.85,20.85
			v37.8c0,11.5-9.35,20.85-20.85,20.85H181.31z"/>
	</g>
	<g>
		<path class="st0" d="M219.11,50.03c11.08,0,20.1,9.02,20.1,20.1v37.8c0,11.08-9.02,20.1-20.1,20.1h-37.8
			c-11.08,0-20.1-9.02-20.1-20.1v-37.8c0-11.08,9.02-20.1,20.1-20.1H219.11 M219.11,48.53h-37.8c-11.88,0-21.6,9.72-21.6,21.6v37.8
			c0,11.88,9.72,21.6,21.6,21.6h37.8c11.88,0,21.6-9.72,21.6-21.6v-37.8C240.71,58.25,230.99,48.53,219.11,48.53L219.11,48.53z"/>
	</g>
</g>
<g>
	<g>
		<path class="st0" d="M159.71,129.08c-2.56,0-4.65-2.09-4.65-4.65c0-2.56,2.09-4.65,4.65-4.65h81c2.56,0,4.65,2.09,4.65,4.65
			c0,2.56-2.09,4.65-4.65,4.65H159.71z"/>
	</g>
	<g>
		<path d="M240.71,120.53c2.15,0,3.9,1.75,3.9,3.9c0,2.15-1.75,3.9-3.9,3.9h-81c-2.15,0-3.9-1.75-3.9-3.9c0-2.15,1.75-3.9,3.9-3.9
			H240.71 M240.71,119.03h-81c-2.97,0-5.4,2.43-5.4,5.4c0,2.97,2.43,5.4,5.4,5.4h81c2.97,0,5.4-2.43,5.4-5.4
			C246.11,121.46,243.68,119.03,240.71,119.03L240.71,119.03z"/>
	</g>
</g>
<g>
	<g>
		<path class="st0" d="M159.71,118.88c-2.56,0-4.65-2.09-4.65-4.65s2.09-4.65,4.65-4.65h81c2.56,0,4.65,2.09,4.65,4.65
			s-2.09,4.65-4.65,4.65H159.71z"/>
	</g>
	<g>
		<path d="M240.71,110.33c2.15,0,3.9,1.75,3.9,3.9c0,2.15-1.75,3.9-3.9,3.9h-81c-2.15,0-3.9-1.75-3.9-3.9c0-2.15,1.75-3.9,3.9-3.9
			H240.71 M240.71,108.83h-81c-2.97,0-5.4,2.43-5.4,5.4c0,2.97,2.43,5.4,5.4,5.4h81c2.97,0,5.4-2.43,5.4-5.4
			C246.11,111.26,243.68,108.83,240.71,108.83L240.71,108.83z"/>
	</g>
</g>
<g>
	<g>
		<polygon class="st0" points="161.01,236.67 239.41,236.67 200.21,304.57 		"/>
	</g>
	<g>
		<path d="M238.11,237.42l-37.9,65.65l-37.9-65.65L238.11,237.42 M240.71,235.92l-81,0l40.5,70.15L240.71,235.92L240.71,235.92z"/>
	</g>
</g>
<g>
	<g>
		<polygon points="187.01,281.68 213.41,281.68 200.21,304.55 		"/>
	</g>
	<g>
		<path d="M212.11,282.43l-11.9,20.61l-11.9-20.61H212.11 M214.71,280.93h-29l14.5,25.11L214.71,280.93L214.71,280.93z"/>
	</g>
</g>
<g>
	<g>
		<circle class="st0" cx="62.01" cy="276.53" r="12.75"/>
	</g>
	<g>
		<path d="M62.01,264.53c6.62,0,12,5.38,12,12s-5.38,12-12,12s-12-5.38-12-12S55.39,264.53,62.01,264.53 M62.01,263.03
			c-7.46,0-13.5,6.04-13.5,13.5c0,7.46,6.04,13.5,13.5,13.5c7.46,0,13.5-6.04,13.5-13.5C75.51,269.08,69.47,263.03,62.01,263.03
			L62.01,263.03z"/>
	</g>
</g>
<g>
	<g>
		<path class="st1" d="M124.29,340.18c-0.79,0.79-0.79,2.06,0,2.85c0.98,0.98,2.58,0.98,3.56,0c1.23-1.23,1.23-3.22,0-4.45
			c-1.54-1.54-4.03-1.54-5.56,0c-1.92,1.92-1.92,5.03,0,6.95c2.4,2.4,6.29,2.4,8.69,0c3-3,3-7.86,0-10.86
			c-3.75-3.75-9.83-3.75-13.58,0c-4.69,4.69-4.69,12.28,0,16.97c5.86,5.86,15.36,5.86,21.21,0"/>
	</g>
</g>
<g>
	<g>
		<polygon class="st0" points="214.61,409.28 204.03,409.28 200.76,399.22 197.49,409.28 186.91,409.28 195.47,415.5 192.2,425.57 
			200.76,419.35 209.32,425.57 206.05,415.5 		"/>
	</g>
	<g>
		<polygon class="st2" points="214.61,409.28 204.03,409.28 200.76,399.22 197.49,409.28 186.91,409.28 195.47,415.5 192.2,425.57 
			200.76,419.35 209.32,425.57 206.05,415.5 		"/>
	</g>
</g>
<g>
	<g>
		<polygon class="st0" points="287.43,335.07 277.2,337 267.54,333.12 269.48,343.35 265.6,353 275.82,351.06 285.48,354.95 
			283.54,344.72 		"/>
	</g>
	<g>
		<polygon class="st2" points="287.43,335.07 277.2,337 267.54,333.12 269.48,343.35 265.6,353 275.82,351.06 285.48,354.95 
			283.54,344.72 		"/>
	</g>
</g>
<g>
	<g>
		<polygon class="st0" points="349.26,279.53 342.4,277.09 345.53,270.52 338.95,273.64 336.51,266.79 334.07,273.64 327.5,270.52 
			330.62,277.09 323.76,279.53 330.62,281.97 327.5,288.55 334.07,285.42 336.51,292.28 338.95,285.42 345.53,288.55 342.4,281.97 
					"/>
	</g>
	<g>
		<polygon class="st2" points="349.26,279.53 342.4,277.09 345.53,270.52 338.95,273.64 336.51,266.79 334.07,273.64 327.5,270.52 
			330.62,277.09 323.76,279.53 330.62,281.97 327.5,288.55 334.07,285.42 336.51,292.28 338.95,285.42 345.53,288.55 342.4,281.97 
					"/>
	</g>
</g>
<g>
	<g>
		<path class="st3" d="M199.63,304.62c-5.81-0.31-11.66,0.32-17.27,1.86c-2.63,0.72-5.51,1.92-6.47,4.47
			c-1.43,3.77,2.35,7.58,6.16,8.91c7.84,2.75,16.41,0.23,24.65-0.89c7.37-1,14.88-0.84,22.22,0.29c2.77,0.42,6.05,1.46,6.7,4.19
			c0.46,1.93-0.74,3.96-2.4,5.06c-1.66,1.09-3.69,1.45-5.66,1.72c-6.96,0.96-14.03,1.2-21.04,0.71"/>
	</g>
</g>
</svg>
